<svg width="20" height="20" viewBox="0 0 20 20" fill="none" xmlns="http://www.w3.org/2000/svg">
<g clip-path="url(#clip0_74_1867)">
<path d="M11.7696 10.0001L18.8846 2.88511C19.1193 2.6504 19.2512 2.33205 19.2512 2.00011C19.2512 1.66817 19.1193 1.34983 18.8846 1.11511C18.6499 0.880398 18.3316 0.748535 17.9996 0.748535C17.6677 0.748535 17.3493 0.880398 17.1146 1.11511L9.99963 8.23011L2.88463 1.11511C2.64991 0.880398 2.33157 0.748535 1.99963 0.748535C1.66769 0.748535 1.34934 0.880398 1.11463 1.11511C0.879909 1.34983 0.748047 1.66817 0.748047 2.00011C0.748047 2.33205 0.879909 2.6504 1.11463 2.88511L8.22963 10.0001L1.11463 17.1151C0.881951 17.3509 0.751495 17.6688 0.751495 18.0001C0.751495 18.3314 0.881951 18.6493 1.11463 18.8851C1.34978 19.119 1.66796 19.2503 1.99963 19.2503C2.33129 19.2503 2.64947 19.119 2.88463 18.8851L9.99963 11.7701L17.1146 18.8851C17.3498 19.119 17.668 19.2503 17.9996 19.2503C18.3313 19.2503 18.6495 19.119 18.8846 18.8851C19.1173 18.6493 19.2478 18.3314 19.2478 18.0001C19.2478 17.6688 19.1173 17.3509 18.8846 17.1151L11.7696 10.0001Z" fill="#666666"/>
</g>
<defs>
<clipPath id="clip0_74_1867">
<rect width="20" height="20" fill="white"/>
</clipPath>
</defs>
</svg>
