<svg width="25" height="26" viewBox="0 0 25 26" fill="none" xmlns="http://www.w3.org/2000/svg">
<g clip-path="url(#clip0_74_1980)">
<path d="M12.5 12.0627C12.0856 12.0627 11.6882 12.2273 11.3951 12.5204C11.1021 12.8134 10.9375 13.2108 10.9375 13.6252V18.3127C10.9375 18.7271 11.1021 19.1245 11.3951 19.4176C11.6882 19.7106 12.0856 19.8752 12.5 19.8752C12.9144 19.8752 13.3118 19.7106 13.6049 19.4176C13.8979 19.1245 14.0625 18.7271 14.0625 18.3127V13.6252C14.0625 13.2108 13.8979 12.8134 13.6049 12.5204C13.3118 12.2273 12.9144 12.0627 12.5 12.0627Z" fill="#002B48"/>
<path d="M12.5 10.1128C13.5355 10.1128 14.375 9.27333 14.375 8.23779C14.375 7.20226 13.5355 6.36279 12.5 6.36279C11.4645 6.36279 10.625 7.20226 10.625 8.23779C10.625 9.27333 11.4645 10.1128 12.5 10.1128Z" fill="#002B48"/>
<path d="M12.5 0.737793C10.0277 0.737793 7.61099 1.47091 5.55538 2.84442C3.49976 4.21794 1.89761 6.17017 0.951512 8.45425C0.00541605 10.7383 -0.242126 13.2517 0.24019 15.6764C0.722505 18.1012 1.91301 20.3285 3.66117 22.0766C5.40933 23.8248 7.63661 25.0153 10.0614 25.4976C12.4861 25.9799 14.9995 25.7324 17.2836 24.7863C19.5676 23.8402 21.5199 22.238 22.8934 20.1824C24.2669 18.1268 25 15.7101 25 13.2378C25 9.92259 23.683 6.74316 21.3388 4.39896C18.9946 2.05475 15.8152 0.737793 12.5 0.737793V0.737793ZM12.5 22.6128C10.6458 22.6128 8.83325 22.063 7.29153 21.0328C5.74982 20.0027 4.54821 18.5385 3.83863 16.8255C3.12906 15.1124 2.94341 13.2274 3.30514 11.4088C3.66688 9.59025 4.55976 7.91979 5.87088 6.60867C7.182 5.29755 8.85246 4.40467 10.671 4.04293C12.4896 3.68119 14.3746 3.86685 16.0877 4.57642C17.8007 5.28599 19.2649 6.48761 20.295 8.02932C21.3252 9.57103 21.875 11.3836 21.875 13.2378C21.875 14.4689 21.6325 15.688 21.1614 16.8255C20.6902 17.9629 19.9997 18.9964 19.1291 19.8669C18.2586 20.7375 17.2251 21.428 16.0877 21.8992C14.9502 22.3703 13.7311 22.6128 12.5 22.6128Z" fill="#002B48"/>
</g>
<defs>
<clipPath id="clip0_74_1980">
<rect width="25" height="25" fill="white" transform="translate(0 0.737793)"/>
</clipPath>
</defs>
</svg>
