<svg width="16" height="16" viewBox="0 0 16 16" fill="none" xmlns="http://www.w3.org/2000/svg">
<path fill-rule="evenodd" clip-rule="evenodd" d="M1.33301 2.00065C1.33301 1.63246 1.63148 1.33398 1.99967 1.33398H9.99967C10.3679 1.33398 10.6663 1.63246 10.6663 2.00065C10.6663 2.36884 10.3679 2.66732 9.99967 2.66732H1.99967C1.63148 2.66732 1.33301 2.36884 1.33301 2.00065ZM8.66634 5.33398H1.99967C1.63148 5.33398 1.33301 5.63246 1.33301 6.00065C1.33301 6.36884 1.63148 6.66732 1.99967 6.66732H8.66634C9.03453 6.66732 9.33301 6.36884 9.33301 6.00065C9.33301 5.63246 9.03453 5.33398 8.66634 5.33398ZM1.99967 9.33398H7.33301C7.7012 9.33398 7.99967 9.63246 7.99967 10.0007C7.99967 10.3688 7.7012 10.6673 7.33301 10.6673H1.99967C1.63148 10.6673 1.33301 10.3688 1.33301 10.0007C1.33301 9.63246 1.63148 9.33398 1.99967 9.33398ZM5.99967 13.334H1.99967C1.63148 13.334 1.33301 13.6325 1.33301 14.0007C1.33301 14.3688 1.63148 14.6673 1.99967 14.6673H5.99967C6.36786 14.6673 6.66634 14.3688 6.66634 14.0007C6.66634 13.6325 6.36786 13.334 5.99967 13.334ZM13.9997 11.3301C14.1774 11.3301 14.3478 11.4011 14.473 11.5273C14.5992 11.6525 14.6702 11.8229 14.6702 12.0007C14.6702 12.1784 14.5992 12.3488 14.473 12.474L12.473 14.474C12.3478 14.6002 12.1774 14.6712 11.9997 14.6712C11.8219 14.6712 11.6515 14.6002 11.5263 14.474L9.52634 12.474C9.35724 12.3049 9.29119 12.0584 9.35309 11.8274C9.41499 11.5964 9.59542 11.416 9.82642 11.3541C10.0574 11.2922 10.3039 11.3582 10.473 11.5273L11.333 12.394V2.00065C11.333 1.63246 11.6315 1.33398 11.9997 1.33398C12.3679 1.33398 12.6663 1.63246 12.6663 2.00065V12.394L13.5263 11.5273C13.6515 11.4011 13.8219 11.3301 13.9997 11.3301Z" fill="white"/>
</svg>
