<svg width="50" height="50" viewBox="0 0 50 50" fill="none" xmlns="http://www.w3.org/2000/svg">
<g clip-path="url(#clip0_94_3590)">
<path d="M25 22.6499C24.1712 22.6499 23.3763 22.9791 22.7903 23.5651C22.2042 24.1512 21.875 24.9461 21.875 25.7749V35.1499C21.875 35.9787 22.2042 36.7735 22.7903 37.3596C23.3763 37.9456 24.1712 38.2749 25 38.2749C25.8288 38.2749 26.6237 37.9456 27.2097 37.3596C27.7958 36.7735 28.125 35.9787 28.125 35.1499V25.7749C28.125 24.9461 27.7958 24.1512 27.2097 23.5651C26.6237 22.9791 25.8288 22.6499 25 22.6499Z" fill="#620303"/>
<path d="M25 18.75C27.0711 18.75 28.75 17.0711 28.75 15C28.75 12.9289 27.0711 11.25 25 11.25C22.9289 11.25 21.25 12.9289 21.25 15C21.25 17.0711 22.9289 18.75 25 18.75Z" fill="#620303"/>
<path d="M25 0C20.0555 0 15.222 1.46622 11.1108 4.21326C6.99953 6.9603 3.79521 10.8648 1.90302 15.4329C0.0108321 20.0011 -0.484251 25.0277 0.480379 29.8773C1.44501 34.7268 3.82603 39.1814 7.32234 42.6777C10.8187 46.174 15.2732 48.555 20.1228 49.5196C24.9723 50.4843 29.9989 49.9892 34.5671 48.097C39.1353 46.2048 43.0397 43.0005 45.7867 38.8893C48.5338 34.778 50 29.9445 50 25C50 18.3696 47.3661 12.0107 42.6777 7.32233C37.9893 2.63392 31.6304 0 25 0V0ZM25 43.75C21.2916 43.75 17.6665 42.6503 14.5831 40.5901C11.4996 38.5298 9.09641 35.6014 7.67727 32.1753C6.25813 28.7492 5.88681 24.9792 6.61029 21.3421C7.33376 17.7049 9.11952 14.364 11.7418 11.7417C14.364 9.11951 17.7049 7.33375 21.3421 6.61028C24.9792 5.8868 28.7492 6.25812 32.1753 7.67726C35.6014 9.0964 38.5298 11.4996 40.5901 14.5831C42.6503 17.6665 43.75 21.2916 43.75 25C43.75 27.4623 43.265 29.9005 42.3228 32.1753C41.3805 34.4502 39.9994 36.5172 38.2583 38.2583C36.5172 39.9994 34.4502 41.3805 32.1753 42.3227C29.9005 43.265 27.4623 43.75 25 43.75Z" fill="#620303"/>
</g>
<defs>
<clipPath id="clip0_94_3590">
<rect width="50" height="50" fill="white"/>
</clipPath>
</defs>
</svg>
