<svg width="22" height="17" viewBox="0 0 22 17" fill="none" xmlns="http://www.w3.org/2000/svg">
<path fill-rule="evenodd" clip-rule="evenodd" d="M6.49946 7.00018C6.49946 5.93931 6.92088 4.9219 7.67103 4.17175C8.42118 3.4216 9.43859 3.00018 10.4995 3.00018C11.5603 3.00018 12.5777 3.4216 13.3279 4.17175C14.078 4.9219 14.4995 5.93931 14.4995 7.00018V8.00018H15.4995C15.9591 8.00018 16.4142 8.09071 16.8388 8.2666C17.2635 8.44249 17.6493 8.7003 17.9743 9.0253C18.2993 9.35031 18.5571 9.73615 18.733 10.1608C18.9089 10.5854 18.9995 11.0406 18.9995 11.5002C18.9995 11.9598 18.9089 12.4149 18.733 12.8396C18.5571 13.2642 18.2993 13.65 17.9743 13.9751C17.6493 14.3001 17.2635 14.5579 16.8388 14.7338C16.4142 14.9096 15.9591 15.0002 15.4995 15.0002H15.3995C15.1342 15.0002 14.8799 15.1055 14.6924 15.2931C14.5048 15.4806 14.3995 15.735 14.3995 16.0002C14.3995 16.2654 14.5048 16.5197 14.6924 16.7073C14.8799 16.8948 15.1342 17.0002 15.3995 17.0002H15.4995C16.8786 17.0019 18.208 16.4855 19.2243 15.5533C20.2407 14.621 20.8697 13.341 20.9867 11.9668C21.1037 10.5927 20.7002 9.2247 19.8561 8.13403C19.012 7.04337 17.789 6.30961 16.4295 6.07818C16.2098 4.66306 15.4914 3.37314 14.4039 2.44141C13.3164 1.50968 11.9315 0.997559 10.4995 0.997559C9.0674 0.997559 7.68255 1.50968 6.59505 2.44141C5.50755 3.37314 4.78909 4.66306 4.56946 6.07818C3.21434 6.31475 1.997 7.05037 1.15739 8.14004C0.317778 9.2297 -0.0831894 10.5943 0.0335207 11.965C0.150231 13.3357 0.776151 14.6129 1.78791 15.5449C2.79966 16.4769 4.12385 16.9961 5.49946 17.0002H5.59946C5.86467 17.0002 6.11903 16.8948 6.30656 16.7073C6.4941 16.5197 6.59946 16.2654 6.59946 16.0002C6.59946 15.735 6.4941 15.4806 6.30656 15.2931C6.11903 15.1055 5.86467 15.0002 5.59946 15.0002H5.49946C5.03983 15.0002 4.5847 14.9096 4.16006 14.7338C3.73542 14.5579 3.34959 14.3001 3.02458 13.9751C2.69958 13.65 2.44177 13.2642 2.26588 12.8396C2.08999 12.4149 1.99946 11.9598 1.99946 11.5002C1.99946 11.0406 2.08999 10.5854 2.26588 10.1608C2.44177 9.73615 2.69958 9.35031 3.02458 9.0253C3.34959 8.7003 3.73542 8.44249 4.16006 8.2666C4.5847 8.09071 5.03983 8.00018 5.49946 8.00018H6.49946V7.00018ZM11.4995 8.00018C11.4995 7.73496 11.3941 7.48061 11.2066 7.29307C11.019 7.10553 10.7647 7.00018 10.4995 7.00018C10.2342 7.00018 9.97989 7.10553 9.79235 7.29307C9.60481 7.48061 9.49946 7.73496 9.49946 8.00018V13.5862L8.20646 12.2932C8.01785 12.111 7.76525 12.0102 7.50306 12.0125C7.24086 12.0148 6.99005 12.12 6.80464 12.3054C6.61923 12.4908 6.51406 12.7416 6.51178 13.0038C6.5095 13.266 6.6103 13.5186 6.79246 13.7072L9.79246 16.7072C9.97998 16.8946 10.2343 17 10.4995 17C10.7646 17 11.0189 16.8946 11.2065 16.7072L14.2065 13.7072C14.3886 13.5186 14.4894 13.266 14.4871 13.0038C14.4849 12.7416 14.3797 12.4908 14.1943 12.3054C14.0089 12.12 13.7581 12.0148 13.4959 12.0125C13.2337 12.0102 12.9811 12.111 12.7925 12.2932L11.4995 13.5862V8.00018Z" fill="white"/>
</svg>
