<svg width="86" height="87" viewBox="0 0 86 87" fill="none" xmlns="http://www.w3.org/2000/svg">
<path fill-rule="evenodd" clip-rule="evenodd" d="M43 86.5439C66.7483 86.5439 86 67.2923 86 43.5439C86 19.7956 66.7483 0.543945 43 0.543945C19.2517 0.543945 0 19.7956 0 43.5439C0 67.2923 19.2517 86.5439 43 86.5439ZM69.9587 34.2515L38.0222 66.0264C36.9376 67.1054 35.1794 67.1054 34.0947 66.0262L16.0437 48.0665C14.9592 46.9876 14.9592 45.238 16.0437 44.1591L19.971 40.2516C21.0556 39.1727 22.8141 39.1727 23.8985 40.2516L36.0585 52.3501L62.1039 26.4366C63.1885 25.3575 64.9469 25.3575 66.0314 26.4366L69.9587 30.3441C71.0431 31.423 71.0431 33.1726 69.9587 34.2515Z" fill="#12F0A5"/>
</svg>
