<svg width="23" height="33" viewBox="0 0 23 33" fill="none" xmlns="http://www.w3.org/2000/svg">
<path d="M0.888719 13C1.68872 8.2 9.22205 2.33333 12.8887 0L14.8886 1V3L12.8886 5L11.8886 6L9.88861 8L7.88861 10L6.88861 12V13V14V15L8.88861 14H9.88861H10.8886H11.8886H13.8886H14.8886H16.8886L18.8886 15L20.8886 17L22.8886 19V21V23V26V27L21.8886 28L19.8886 30L17.8886 32H16.8886C16.8886 33 11.8886 33 9.88861 33C7.88861 33 4.88861 30 3.88861 29C2.88861 28 0.888719 23 0.888719 22C0.888719 21 -0.111281 19 0.888719 13Z" fill="white"/>
</svg>
