<svg width="23" height="21" viewBox="0 0 23 21" fill="none" xmlns="http://www.w3.org/2000/svg">
<path fill-rule="evenodd" clip-rule="evenodd" d="M13.0634 1.03575C12.3034 -0.34525 10.3184 -0.34525 9.55943 1.03575L0.249435 17.9607C-0.481565 19.2947 0.481435 20.9247 2.00343 20.9247H20.6214C22.1424 20.9247 23.1064 19.2947 22.3734 17.9607L13.0634 1.03575ZM11.3114 1.99975L20.6214 18.9247H2.00143L11.3114 1.99975ZM11.3114 6.92475C11.5767 6.92475 11.831 7.03011 12.0185 7.21764C12.2061 7.40518 12.3114 7.65953 12.3114 7.92475V12.9248C12.3114 13.19 12.2061 13.4443 12.0185 13.6319C11.831 13.8194 11.5767 13.9248 11.3114 13.9248C11.0462 13.9248 10.7919 13.8194 10.6043 13.6319C10.4168 13.4443 10.3114 13.19 10.3114 12.9248V7.92475C10.3114 7.65953 10.4168 7.40518 10.6043 7.21764C10.7919 7.03011 11.0462 6.92475 11.3114 6.92475ZM12.5614 16.6747C12.5614 17.0063 12.4297 17.3242 12.1953 17.5586C11.9609 17.7931 11.643 17.9247 11.3114 17.9247C10.9799 17.9247 10.662 17.7931 10.4276 17.5586C10.1931 17.3242 10.0614 17.0063 10.0614 16.6747C10.0614 16.3432 10.1931 16.0253 10.4276 15.7909C10.662 15.5564 10.9799 15.4248 11.3114 15.4248C11.643 15.4248 11.9609 15.5564 12.1953 15.7909C12.4297 16.0253 12.5614 16.3432 12.5614 16.6747Z" fill="#620303"/>
</svg>
